<svg xmlns="http://www.w3.org/2000/svg" xmlns:xlink="http://www.w3.org/1999/xlink" viewBox="0 0 103.4 100.75"><defs><style>.cls-1{fill:url(#Безымянный_градиент_7);}.cls-2{fill:url(#Безымянный_градиент_6);}.cls-3{fill:url(#Безымянный_градиент_7-2);}.cls-4{fill:url(#Безымянный_градиент_7-3);}.cls-5{fill:url(#Безымянный_градиент_7-4);}.cls-6{fill:url(#Безымянный_градиент_6-2);}.cls-7{fill:url(#Безымянный_градиент_7-5);}.cls-8{fill:#714896;}.cls-9{fill:#6f4795;}.cls-10{fill:#88519f;}.cls-11{fill:#85509e;}.cls-12{fill:#8d166a;}.cls-13{fill:#a70d6f;}.cls-14{fill:#9e61ad;}.cls-15{fill:#8053a3;}.cls-16{fill:url(#Безымянный_градиент_8);}</style><linearGradient id="Безымянный_градиент_7" x1="-1072.92" y1="29.04" x2="-1070.38" y2="31" gradientTransform="translate(51574.53 -1564.57) scale(48.08 52.36)" gradientUnits="userSpaceOnUse"><stop offset="0" stop-color="#c06fbb"/><stop offset="1" stop-color="#6e4d9b"/></linearGradient><linearGradient id="Безымянный_градиент_6" x1="-1082.07" y1="21.87" x2="-1082.76" y2="21.07" gradientTransform="translate(103658.07 -2168.57) scale(95.72 103.37)" gradientUnits="userSpaceOnUse"><stop offset="0" stop-color="#6e4d9b"/><stop offset="0.14" stop-color="#77327a"/><stop offset="0.29" stop-color="#b31777"/><stop offset="0.84" stop-color="#cd0f7e"/><stop offset="1" stop-color="#ed2c89"/></linearGradient><linearGradient id="Безымянный_градиент_7-2" x1="-1074.63" y1="26.6" x2="-1072.67" y2="29.82" gradientTransform="translate(56536.05 -1333.94) scale(52.65 48.41)" xlink:href="#Безымянный_градиент_7"/><linearGradient id="Безымянный_градиент_7-3" x1="-1071.24" y1="30.89" x2="-1067.51" y2="33.94" gradientTransform="translate(42436.28 -1272.3) scale(39.65 39.73)" xlink:href="#Безымянный_градиент_7"/><linearGradient id="Безымянный_градиент_7-4" x1="-1075.97" y1="26.48" x2="-1073.7" y2="28.48" gradientTransform="translate(65676.13 -1626.22) scale(61.08 61.04)" xlink:href="#Безымянный_градиент_7"/><linearGradient id="Безымянный_градиент_6-2" x1="-1080.96" y1="23.3" x2="-1081.65" y2="22.49" gradientTransform="translate(103407.63 -2311.59) scale(95.58 103.16)" xlink:href="#Безымянный_градиент_6"/><linearGradient id="Безымянный_градиент_7-5" x1="-1072.84" y1="28.93" x2="-1070.3" y2="31.3" gradientTransform="translate(51576.8 -1564.57) scale(48.08 52.36)" xlink:href="#Безымянный_градиент_7"/><linearGradient id="Безымянный_градиент_8" x1="-1088.67" y1="18.81" x2="-1088.35" y2="18.49" gradientTransform="translate(277784.81 -3733.45) scale(255.15 202.96)" gradientUnits="userSpaceOnUse"><stop offset="0" stop-color="#6e4d9b"/><stop offset="0.14" stop-color="#77327a"/><stop offset="0.53" stop-color="#b31777"/><stop offset="0.79" stop-color="#cd0f7e"/><stop offset="1" stop-color="#ed2c89"/></linearGradient></defs><g id="Слой_2" data-name="Слой 2"><g id="Слой_1-2" data-name="Слой 1"><path class="cls-1" d="M67.68,18.67l-9.59,6.4-9.88-14.8,9.59-6.4Z"/><path class="cls-2" d="M75.48,63.16,91.86,87.72l-19.52,13L56,76.19,53.09,71.9l19.53-13,2.86,4.28Z"/><path class="cls-3" d="M50.89,79.57,54.5,85,39.64,94.89,33.17,85.2,36.42,83,48,75.25l2.86,4.29Z"/><path class="cls-4" d="M83.59,51.55l4.17-2.78,6.47,9.69-9.59,6.4L81,59.45l5.42-3.62ZM81,59.45l-2.86-4.28,5.42-3.62,2.86,4.28Z"/><path class="cls-5" d="M16.34,52.94,13.1,55.11,3.2,40.3l14.86-9.92L25,40.76,13.34,48.51,25,40.76l3,4.43Z"/><path class="cls-6" d="M52.53,28.78,33,41.78l-3-4.43L13.82,13.05,33.34,0,49.58,24.35Z"/><path class="cls-7" d="M63.51,21.46l-5.42,3.62-3-4.43L48.21,10.27l9.59-6.4,9.88,14.8Z"/><path class="cls-8" d="M39.27,87.32,36.42,83,48,75.25l2.86,4.29Z"/><path class="cls-9" d="M81,59.45l-2.86-4.28,5.42-3.62,2.86,4.28Z"/><path class="cls-10" d="M16.34,52.94l-3-4.43L25,40.76l3,4.43Z"/><path class="cls-11" d="M58.09,25.08l-3-4.43L60.56,17l3,4.43-5.42,3.62Z"/><path class="cls-12" d="M75.48,63.16,56,76.16,53.09,71.9l19.53-13,2.86,4.28Z"/><path class="cls-13" d="M49.58,24.35l3,4.43L33,41.78l-3-4.43,19.52-13Z"/><path class="cls-14" d="M10.8,20.81l3.68,5.53L9,30,5.27,24.5Z"/><path class="cls-15" d="M30.69,87l3.65,5.53-5.52,3.69-3.69-5.53Z"/><path class="cls-16" d="M16.17,92.57,0,68.15,86.4,10.36l17,24Z"/></g></g></svg>