<svg xmlns="http://www.w3.org/2000/svg" xmlns:xlink="http://www.w3.org/1999/xlink" viewBox="0 0 104.61 100.06"><defs><style>.cls-1,.cls-15,.cls-23,.cls-24,.cls-53{fill:none;}.cls-2{fill:#fff;}.cls-3{fill:#ba8449;}.cls-4{fill:#fff8ee;}.cls-5{clip-path:url(#clip-path);}.cls-6{opacity:0.3;}.cls-7{clip-path:url(#clip-path-2);}.cls-8{clip-path:url(#clip-path-3);}.cls-9{fill:#895b2e;}.cls-10{fill:#e5d0ae;}.cls-11{clip-path:url(#clip-path-4);}.cls-12{opacity:0.15;}.cls-13{fill:#e3ab5e;}.cls-14,.cls-48{fill:#fcd4c3;}.cls-15{stroke:#f8a38f;}.cls-15,.cls-53{stroke-miterlimit:10;}.cls-15,.cls-24{stroke-width:2px;}.cls-16{clip-path:url(#clip-path-5);}.cls-17{opacity:0.5;}.cls-18{clip-path:url(#clip-path-6);}.cls-19{clip-path:url(#clip-path-7);}.cls-20{opacity:0.25;}.cls-21{clip-path:url(#clip-path-8);}.cls-22{clip-path:url(#clip-path-9);}.cls-23{stroke:#e5d0ae;stroke-width:3px;}.cls-23,.cls-24{stroke-linecap:round;stroke-linejoin:round;}.cls-24{stroke:#895b2e;}.cls-25{clip-path:url(#clip-path-10);}.cls-26{clip-path:url(#clip-path-11);}.cls-27{clip-path:url(#clip-path-12);}.cls-28{fill:#e5bfa1;}.cls-29{clip-path:url(#clip-path-13);}.cls-30{clip-path:url(#clip-path-14);}.cls-31{fill:#f8a38f;}.cls-32{clip-path:url(#clip-path-15);}.cls-33{clip-path:url(#clip-path-16);}.cls-34{fill:#f7e8d0;}.cls-35{clip-path:url(#clip-path-17);}.cls-36{fill:#d8cab2;}.cls-37{clip-path:url(#clip-path-18);}.cls-38{fill:#333;}.cls-39{clip-path:url(#clip-path-19);}.cls-40{clip-path:url(#clip-path-20);}.cls-41{fill:#fff7e3;}.cls-42{clip-path:url(#clip-path-21);}.cls-43{fill:#ffdc99;}.cls-44{clip-path:url(#clip-path-22);}.cls-45{fill:#eadcbe;}.cls-46{clip-path:url(#clip-path-23);}.cls-47{clip-path:url(#clip-path-24);}.cls-48{opacity:0.4;isolation:isolate;}.cls-49{clip-path:url(#clip-path-25);}.cls-50{clip-path:url(#clip-path-26);}.cls-51{fill:#1a1a1a;}.cls-52{clip-path:url(#clip-path-27);}.cls-53{stroke:#333;stroke-width:4px;}.cls-54{clip-path:url(#clip-path-28);}.cls-55{clip-path:url(#clip-path-29);}.cls-56{clip-path:url(#clip-path-30);}.cls-57{clip-path:url(#clip-path-31);}.cls-58{clip-path:url(#clip-path-32);}.cls-59{clip-path:url(#clip-path-33);}.cls-60{clip-path:url(#clip-path-34);}.cls-61{clip-path:url(#clip-path-35);}.cls-62{fill:#d0dddc;}.cls-63{clip-path:url(#clip-path-36);}.cls-64{clip-path:url(#clip-path-37);}.cls-65{clip-path:url(#clip-path-38);}.cls-66{clip-path:url(#clip-path-39);}.cls-67{clip-path:url(#clip-path-40);}.cls-68{clip-path:url(#clip-path-41);}.cls-69{opacity:0.1;}.cls-70{clip-path:url(#clip-path-42);}.cls-71{fill:#e24b31;}</style><clipPath id="clip-path"><rect class="cls-1" x="17.3" y="17.81" width="69.24" height="24.18"/></clipPath><clipPath id="clip-path-2"><rect class="cls-1" x="18.32" y="16.06" width="13.64" height="6.62"/></clipPath><clipPath id="clip-path-3"><rect class="cls-1" x="73.88" y="19.57" width="10.38" height="7.03"/></clipPath><clipPath id="clip-path-4"><rect class="cls-1" x="78.98" y="67.45" width="9.6" height="11.15"/></clipPath><clipPath id="clip-path-5"><rect class="cls-1" x="82.94" y="61.85" width="3.19" height="2.61"/></clipPath><clipPath id="clip-path-6"><rect class="cls-1" x="88.13" y="61.2" width="3.15" height="2.94"/></clipPath><clipPath id="clip-path-7"><rect class="cls-1" x="83.48" y="66.02" width="6.45" height="3.51"/></clipPath><clipPath id="clip-path-8"><rect class="cls-1" x="91.03" y="65.16" width="2.33" height="2.04"/></clipPath><clipPath id="clip-path-9"><rect class="cls-1" x="26.94" y="61.77" width="52.66" height="14.91"/></clipPath><clipPath id="clip-path-10"><rect class="cls-1" x="73.67" y="5.48" width="7.35" height="18.22"/></clipPath><clipPath id="clip-path-11"><rect class="cls-1" x="15.7" y="8.21" width="18.06" height="12.91"/></clipPath><clipPath id="clip-path-12"><rect class="cls-1" x="73.92" y="4.41" width="10.7" height="18.06"/></clipPath><clipPath id="clip-path-13"><rect class="cls-1" x="25.14" y="13.57" width="47.92" height="45.71"/></clipPath><clipPath id="clip-path-14"><rect class="cls-1" x="48.34" y="35.87" width="5.35" height="2.25"/></clipPath><clipPath id="clip-path-15"><rect class="cls-1" x="48.1" y="33.42" width="5.92" height="4.04"/></clipPath><clipPath id="clip-path-16"><rect class="cls-1" x="30.2" y="38.2" width="46.12" height="26.19"/></clipPath><clipPath id="clip-path-17"><rect class="cls-1" x="32.62" y="38.61" width="38.24" height="19.4"/></clipPath><clipPath id="clip-path-18"><rect class="cls-1" x="33.02" y="39.02" width="37.42" height="19"/></clipPath><clipPath id="clip-path-19"><rect class="cls-1" x="33.43" y="39.42" width="36.6" height="18.55"/></clipPath><clipPath id="clip-path-20"><rect class="cls-1" x="42.05" y="48.21" width="20.51" height="8.46"/></clipPath><clipPath id="clip-path-21"><rect class="cls-1" x="44.79" y="43.51" width="12.3" height="9.48"/></clipPath><clipPath id="clip-path-22"><rect class="cls-1" x="44.83" y="43.35" width="12.13" height="4.21"/></clipPath><clipPath id="clip-path-23"><rect class="cls-1" x="50.59" y="45.92" width="2.25" height="6.01"/></clipPath><clipPath id="clip-path-24"><rect class="cls-1" x="15.91" y="8.21" width="16.1" height="14.58"/></clipPath><clipPath id="clip-path-25"><rect class="cls-1" x="24.4" y="23.41" width="54.62" height="17.36"/></clipPath><clipPath id="clip-path-26"><rect class="cls-1" x="19.99" y="18.26" width="64.26" height="21.69"/></clipPath><clipPath id="clip-path-27"><rect class="cls-1" x="26.24" y="21.25" width="20.63" height="13.97"/></clipPath><clipPath id="clip-path-28"><rect class="cls-1" x="57.04" y="23.17" width="20.47" height="14.3"/></clipPath><clipPath id="clip-path-29"><rect class="cls-1" x="19.99" y="20.51" width="63.85" height="18.79"/></clipPath><clipPath id="clip-path-30"><rect class="cls-1" x="21.01" y="18.71" width="8.25" height="1.23"/></clipPath><clipPath id="clip-path-31"><rect class="cls-1" x="47.57" y="20.71" width="8.86" height="2.17"/></clipPath><clipPath id="clip-path-32"><rect class="cls-1" x="76.49" y="22.31" width="5.02" height="1.59"/></clipPath><clipPath id="clip-path-33"><rect class="cls-1" x="25.38" y="21" width="11.81" height="11.68"/></clipPath><clipPath id="clip-path-34"><rect class="cls-1" x="67.38" y="23.04" width="11.36" height="12.46"/></clipPath><clipPath id="clip-path-35"><rect class="cls-1" x="26.81" y="21.82" width="19.53" height="11.23"/></clipPath><clipPath id="clip-path-36"><rect class="cls-1" x="27.22" y="29.25" width="14.38" height="5.68"/></clipPath><clipPath id="clip-path-37"><rect class="cls-1" x="57.62" y="23.74" width="19.49" height="10.42"/></clipPath><clipPath id="clip-path-38"><rect class="cls-1" x="61.29" y="32.28" width="14.83" height="4.78"/></clipPath><clipPath id="clip-path-39"><rect class="cls-1" x="35.6" y="26.07" width="0.82" height="0.82"/></clipPath><clipPath id="clip-path-40"><rect class="cls-1" x="67.87" y="27.99" width="0.82" height="0.82"/></clipPath><clipPath id="clip-path-41"><rect class="cls-1" x="21.18" y="19.49" width="26.47" height="3.88"/></clipPath><clipPath id="clip-path-42"><rect class="cls-1" x="56.19" y="20.8" width="19.57" height="3.76"/></clipPath></defs><g id="Слой_2" data-name="Слой 2"><g id="Layer_1" data-name="Layer 1"><path class="cls-2" d="M23.59,76.81l.24-.61v-.08c.21-.49.41-1,.62-1.51l.73-2a9.24,9.24,0,0,0,.41-1.15c.33-.9.78-2.08,1.31-3.23a16.81,16.81,0,0,1,.85-1.63c.33-.53.66-1,1-1.51l.28-.41.45-.29a1.13,1.13,0,0,1,.21-.12c.2-.1.4-.2.61-.28a8.33,8.33,0,0,1,1.06-.37c.57-.16,1.23-.33,2-.49,1.15-.25,2.37-.49,3.92-.74,2.33-.36,4.82-.69,7.81-1,5.27-.57,10.54-1,15.6-1.22,2.7-.13,4.74-.17,6.66-.17h1.23a34.67,34.67,0,0,1,4.08.29,7.77,7.77,0,0,1,1.27.28,1.2,1.2,0,0,1,.28.13l.41.16.33.29.37.36a18,18,0,0,1,1.43,1.6,33.68,33.68,0,0,1,4.16,7,32.4,32.4,0,0,1,2.37,7.23L84,80.52H76.45L76,78.36c-.49-2.29-6.66-8.34-9.72-9.52-.33-.12-1.64-.49-5.68-.49a163.8,163.8,0,0,0-21.78,1.84c-2,.94-5.06,4.86-6.82,8.78l-.73,1.59"/><path class="cls-3" d="M74.65,64.81a9.65,9.65,0,0,0-1.22-1.34l-.29-.29h-.08a4,4,0,0,0-.78-.16,35.38,35.38,0,0,0-3.72-.25c-2.57,0-5.14,0-7.72.16-5.14.25-10.33.66-15.44,1.23-2.57.29-5.15.61-7.68,1-1.26.21-2.53.41-3.76.7-.61.12-1.22.28-1.79.45a5,5,0,0,0-.82.28.36.36,0,0,0-.29.16c-.28.4-.57.81-.86,1.26s-.51.94-.73,1.43q-.67,1.5-1.23,3c-.37,1-.77,2.08-1.14,3.14-.2.53-.41,1.06-.65,1.59a5.4,5.4,0,0,1-.33.74h3.47c1.84-4.1,5.38-9,8.38-10.1a161,161,0,0,1,22.67-2,22,22,0,0,1,6.66.69C70.85,67.89,78,74.5,78.7,78h2a29.35,29.35,0,0,0-2.17-6.58,29.38,29.38,0,0,0-3.88-6.63"/><path class="cls-2" d="M78.41,80.56,78,78.36a29.68,29.68,0,0,0-5.44-11.85,7.48,7.48,0,0,0-.74-.86,29.59,29.59,0,0,0-3.27-.2H67.38c-1.84,0-3.8,0-6.41.16-5,.25-10.09.65-15.28,1.23-2.9.32-5.31.65-7.52,1-1.43.2-2.57.45-3.59.65L33,68.9h-.16c-.08.16-.2.29-.29.45-.2.33-.36.69-.65,1.18-.45.94-.82,1.92-1.14,2.78a10.51,10.51,0,0,0-.41,1.11c-.25.69-.49,1.38-.78,2.08-.2.53-.45,1.06-.65,1.63v.08c-.08.25-.21.49-.29.7l-.73,1.63H23.06l-.7-.32h-.08a2.93,2.93,0,0,1-1.59-2.91v-.12l.08-.38.12-.44c.08-.29.16-.62.25-.9a18.05,18.05,0,0,1,.57-1.76c.37-1.06.81-2.21,1.35-3.43a35.84,35.84,0,0,1,1.71-3.39c.29-.53.61-1.06,1-1.68A20.46,20.46,0,0,1,27,63.54a4.71,4.71,0,0,1,.94-.9,2.12,2.12,0,0,1,.61-.37c.28-.15.57-.29.86-.41.49-.2.94-.32,1.31-.45.81-.24,1.59-.41,2.16-.53,1.19-.24,2.45-.49,4-.73,2.36-.37,4.86-.66,7.92-1,5.31-.53,10.62-.94,15.77-1.15,2.56-.07,4.44-.19,6.24-.19h1.88a35.55,35.55,0,0,1,4.37.33,14.09,14.09,0,0,1,1.59.36c.17.09.41.17.7.29a1.87,1.87,0,0,1,.49.29l.2.16.17.12.16.16.45.45a19,19,0,0,1,1.63,1.84,37.62,37.62,0,0,1,4.37,7.48,32.74,32.74,0,0,1,2.55,8.09l.49,3.14H78.41Z"/><path class="cls-2" d="M26.2,80.56,28,76.68c1.51-3.23,5.15-9.15,9.19-10.82h.08c1.35-.49,15-2.09,23.33-2.09,4.66,0,6.41.45,7.31.82,4.21,1.63,11.52,8.54,12.5,12.62l.82,3.35Z"/><path class="cls-2" d="M75.67,80.56l-.49-2.08C74.73,76.56,69,70.81,66,69.61c-.28-.12-1.47-.44-5.39-.44A170,170,0,0,0,39.09,71c-1.55.78-4.37,4.09-6.21,8l-.73,1.55H25.38l1.72-3.8c2-4.49,6-10,9.85-11.6C38.46,64.5,52.26,63,60.64,63c3.64,0,6.09.28,7.6.85,4.21,1.64,12.09,8.75,13.07,13.48L82,80.56Z"/><path class="cls-2" d="M78.82,80.56,78,79.81c-2.94-2.74-3.76-8.42-2.86-10.75A3.14,3.14,0,0,1,78.08,67a2.54,2.54,0,0,1,.78.12A4.61,4.61,0,0,0,81,65.49a3.37,3.37,0,0,1,3-1.68,9.72,9.72,0,0,1,6.33,3.11,3,3,0,0,1,.45,2.78,1.73,1.73,0,0,1-.17.44A57.58,57.58,0,0,1,87,79.34l-.78,1.26H78.84Z"/><path class="cls-2" d="M78.57,80.56l2.54-4.12a43.82,43.82,0,0,0,2.65-4.91,12,12,0,0,1-6.41,1.8l-.08-.08v.29A3.32,3.32,0,0,1,74,70.35,3.39,3.39,0,0,1,74.83,68a3.16,3.16,0,0,1,2.24-1.06c2.94-.12,3.31-.82,3.84-1.84a4.72,4.72,0,0,1,4.41-2.21,6.27,6.27,0,0,1,1.56.17,5.33,5.33,0,0,1,4.37,5.06c.12,2.58-1.31,6.34-4.17,11.16l-.78,1.3Z"/><path class="cls-2" d="M89.32,72.52c-3.31,0-6.91-2.17-8.74-4.29a5.84,5.84,0,0,1-1.68-4.74,3.19,3.19,0,0,1,3.31-2.68,9.28,9.28,0,0,1,1.06.08c.33-1.47,1.1-4.53,4.25-4.53H88a3.53,3.53,0,0,1,3.1,2.53,4,4,0,0,1,1.72-.45,3.58,3.58,0,0,1,2.61,1.14A3.9,3.9,0,0,1,96.06,64a3.41,3.41,0,0,1,1.55,2A3.78,3.78,0,0,1,97,69.33c-1.43,2-4.74,2.94-7.36,3-.16.17-.24.17-.32.17M86.05,5.23c-3,1.88-6.25,6.17-10.25,12A3.25,3.25,0,0,1,73,18.66c-1.47,0-3.35-.9-5.52-2.65C64.07,13.28,64,11.73,64,11.11a3.06,3.06,0,0,1,2.86-3.18c3.31-.29,6-2.29,8.7-4.21S80.64,0,83.53,0a8.54,8.54,0,0,1,1.75.21"/><path class="cls-4" d="M67.05,10.67c8-.74,12.71-9,17.57-7.77C81.35,5,78.12,9,73.62,15.73c-1.1,1.59-8.74-4.86-6.54-5.06"/><path class="cls-2" d="M15.17,6.87a11.43,11.43,0,0,1,8-2.78,30.07,30.07,0,0,1,10,2.08,10.83,10.83,0,0,0,3.39.45h1.51c.94,0,2.94,0,3.8,1.84a3.92,3.92,0,0,1-.45,3.8,10.9,10.9,0,0,1-8.33,4.29H33c-1.84,0-3.55-1-5.55-2.13-2.49-1.39-5.31-3-8.66-3a8.11,8.11,0,0,0-1.39.08M76.78,26.68c-1.47,0-4.25-.61-6-4.78a16.56,16.56,0,0,1-1.32-6.09C69.46,13,71,12.18,71.91,12a37,37,0,0,0,2.78-3.59C78.41,3.31,81.11,0,84.25,0a3.73,3.73,0,0,1,1.51.29A8.45,8.45,0,0,1,91.32,10c-.49,3.31-2.57,7.23-5.64,10.83-1.43,1.67-5.15,5.59-8.45,5.84h-.45"/><path class="cls-2" d="M28.49,28.23a4.21,4.21,0,0,1-1.06-.08C22.2,27.29,15.66,22,13.21,16.59c-1.67-3.72-.94-6.25,0-7.72a7.42,7.42,0,0,1,6.54-3.68c3.35,0,6.7,1.84,9.64,3.43a23.61,23.61,0,0,0,3.47,1.68,2.6,2.6,0,0,1,.78-.13,3,3,0,0,1,2.61,1.56c1.35,2.37.53,8.74-1.59,12.42C33.19,26.81,31,28.23,28.49,28.23Z"/><path class="cls-2" d="M46.71,73.81c-12.26,0-24.39-6-28.43-10.37-4.21-4.53-5.72-9.63-4.58-15.31,1-4.62,3.55-8.75,5.8-12.42,1.55-2.54,3-4.9,3.43-6.62,5-22,17.49-24.84,27.82-24.84h2.13c22,.66,24.22,11.28,25.53,17.65a22,22,0,0,0,.78,3c7.39,18.14,8.62,29,4.08,36.36S69.06,72.11,49.61,73.7c-.94.08-1.92.12-2.9.12Z"/><path class="cls-2" d="M46.26,73.86c-12.5,0-24.06-6.21-27.94-10.41-4.21-4.54-5.72-9.64-4.58-15.32,1-4.62,3.56-8.75,5.8-12.42,1.55-2.54,3-4.9,3.43-6.62,5-22,17.49-24.84,27.82-24.84h2.13c22,.66,24.22,11.28,25.53,17.65a22,22,0,0,0,.78,3c7.27,17.86,8.45,28.64,4,36-5.11,8.46-17.12,11.2-33.54,12.75a32.68,32.68,0,0,1-3.43.16"/><path class="cls-2" d="M78.08,58.5c.17-.36.33-.77.49-1.14,1.68-4,2.94-7.52.94-9.76C77.14,45,67.14,40.24,58.23,36.08c-17-8-27.58-13.27-29.09-18.39a4.82,4.82,0,0,1,.49-3.8C32.57,9.28,40.79,4.33,52,4.33h.33c10.58.08,18.26,3.15,22.87,9,3.93,5,4.78,10.83,5.44,15.08a17.85,17.85,0,0,0,.77,3.75c8,13.77,4.33,23.94,1.43,28.72Z"/><path class="cls-2" d="M69.71,42.65c-4.13,0-11-1-13.4-3.31-1.88-1.79-2.57-4.78-3.31-7.68a24.26,24.26,0,0,0-1.23-4.08l-.53,1.47c-1.1,3.1-2.65,7.39-5.88,9.72-1.39,1-6.41,1.92-10.29,1.92s-6.83-.82-8.79-2.49c-2.82-2.37-4.94-6.74-6.37-13l-.2-.12a5.13,5.13,0,0,1-2-1.92A6.93,6.93,0,0,1,18,17.68a3.34,3.34,0,0,1,2.62-1.75H21a9.82,9.82,0,0,1,1.8.2,12.16,12.16,0,0,0,2.08.24h.37a75.59,75.59,0,0,1,10.83-.81c8.05,0,12.29,1.63,13.89,2.29a1.75,1.75,0,0,1,.32.12,9.23,9.23,0,0,0,2.21.28,3.29,3.29,0,0,0,.94-.08,67,67,0,0,1,10.29-.82c8.5,0,13,1.92,15,2.78a1.23,1.23,0,0,0,.45.17h.16a12.21,12.21,0,0,0,2-.29c.49-.12,1-.2,1.43-.29h.37a3.56,3.56,0,0,1,3.1,2c.78,1.43,1.31,4.41.21,6.12A6.18,6.18,0,0,1,83.52,30a2.22,2.22,0,0,0-.41.2c-.33.57-.9,1.72-1.39,2.66-1.43,2.77-3,6-4.5,7.68-1.3,1.47-3.75,2.16-7.47,2.16"/><g class="cls-5"><g class="cls-6"><path class="cls-2" d="M68.07,42c-3.27,0-7.89-.49-11.2-2.82-1.9-1.36-2.74-4-3.9-8.36A36.28,36.28,0,0,0,51.79,27c-.21.49-.45,1.14-.66,1.67-1.22,3.31-2.9,7.81-6,9.69-1.6,1-6.54,1.87-10.38,1.87-4.12,0-7.11-.94-8.82-2.73A21.45,21.45,0,0,1,20.17,26c-.08-.37-.17-.86-.25-1.15a4.37,4.37,0,0,1-2.69-4.2,2.9,2.9,0,0,1,2.88-2.83,3.68,3.68,0,0,1,2.16.81.19.19,0,0,0,.16.09.49.49,0,0,1,.21.08,3.81,3.81,0,0,1,3,3.23,45.24,45.24,0,0,0,1.8,5.8c1.67,4.37,2.86,5.1,3,5.14a14.6,14.6,0,0,0,4.86.74,22.92,22.92,0,0,0,6.58-1c.61-.94,1.84-3.39,2.69-5.07,2.58-5.1,3-5.88,4.13-6.45A4.68,4.68,0,0,1,51,20.75a11.41,11.41,0,0,1,3.8.65c1.88.82,2.86,3.27,5.06,9.6.41,1.15.9,2.62,1.23,3.35,1.63.78,5.35,1.31,9.23,1.31a19.73,19.73,0,0,0,2.45-.08l1.33-2.77c3.11-6.62,3.6-7.4,4.37-8a10,10,0,0,1,5.07-1.71,2.94,2.94,0,0,1,3,2.32c.45,2.37-1.88,3.27-2.65,3.56l-.7.28c-.29.49-.82,1.56-1.22,2.41-3.35,6.54-4.46,8.34-5.72,9.11-1.56.86-5.31,1.27-8.17,1.27"/></g></g><g class="cls-7"><g class="cls-6"><path class="cls-2" d="M25,22.64A11,11,0,0,1,21.66,22c-.49-.17-.94-.33-1.22-.45a3,3,0,0,1-2.17-2.69V16H21a3.12,3.12,0,0,1,.81.13c.58.08,2.41.2,3,.24h.37c.49,0,2-.2,2.65-.28a9.42,9.42,0,0,1,1.39-.17h2.33L32,18.27a2.74,2.74,0,0,1-2,3c-.08,0-.36.13-.61.21a14,14,0,0,1-4.08,1.06.32.32,0,0,1-.25.08"/></g></g><g class="cls-8"><g class="cls-6"><path class="cls-2" d="M79,26.56a5.36,5.36,0,0,1-3-1.22c-1.18-.82-2.08-1.64-2.08-3.07V19.53h2.66a2.76,2.76,0,0,1,1.1.25c.29.12,1.39.49,1.88.61.16,0,.49-.08,1.14-.2a3.26,3.26,0,0,1,.82-.08h2.33l.37,2.28a2.74,2.74,0,0,1-1.84,3l-.49.24a9.7,9.7,0,0,1-2.45.94,1.41,1.41,0,0,0-.41,0"/></g></g><path class="cls-2" d="M70.08,86.57h-10v-8.7h10Z"/><path class="cls-3" d="M74.65,64.81a9.65,9.65,0,0,0-1.22-1.34l-.29-.29h-.08a4,4,0,0,0-.78-.16,35.38,35.38,0,0,0-3.72-.25c-2.57,0-5.14,0-7.72.16-5.14.25-10.33.66-15.44,1.23-2.57.29-5.15.61-7.68,1-1.26.21-2.53.41-3.76.7-.61.12-1.22.28-1.79.45a5,5,0,0,0-.82.28.36.36,0,0,0-.29.16c-.28.4-.57.81-.86,1.26s-.51.94-.73,1.43q-.67,1.5-1.23,3c-.37,1-.77,2.08-1.14,3.14-.2.53-.41,1.06-.65,1.59a5.4,5.4,0,0,1-.33.74h3.47c1.84-4.1,5.38-9,8.38-10.1a161,161,0,0,1,22.67-2,22,22,0,0,1,6.66.69C70.85,67.89,78,74.5,78.7,78h2a29.35,29.35,0,0,0-2.17-6.58,29.38,29.38,0,0,0-3.88-6.63"/><path class="cls-9" d="M80.37,70.43a32.56,32.56,0,0,0-4-6.9A15.8,15.8,0,0,0,75,62l-.37-.37-.08-.08-.08-.09-.21-.12a1.22,1.22,0,0,0-.37-.16,6.84,6.84,0,0,0-1.17-.35,35.51,35.51,0,0,0-4-.28c-2.66-.05-5.23,0-7.85.12-5.23.2-10.41.61-15.6,1.14-2.58.29-5.19.57-7.8,1-1.31.21-2.58.41-3.89.7-.65.16-1.3.28-2,.49a6.3,6.3,0,0,0-1,.36c-.16.09-.37.17-.57.29a1.38,1.38,0,0,1-.33.2,2.59,2.59,0,0,0-.4.41c-.37.45-.74,1-1.07,1.47a13.71,13.71,0,0,0-.94,1.56c-.57,1-1.1,2.08-1.59,3.14a31.81,31.81,0,0,0-1.27,3.23,13.28,13.28,0,0,0-.49,1.63c-.08.29-.16.53-.24.82l-.12.41v.2s.08.08.24.21h2.41c.12-.25.2-.49.33-.74.2-.53.45-1.06.65-1.55.41-1.06.78-2.08,1.14-3.15a25,25,0,0,1,1.23-3L30.27,68c.26-.44.55-.86.85-1.27a.75.75,0,0,0,.29-.16c.25-.08.53-.2.82-.29.57-.16,1.18-.32,1.79-.44,1.23-.29,2.5-.49,3.76-.7,2.54-.41,5.11-.73,7.68-1Q53.2,63.33,60.91,63c2.57-.12,5.14-.2,7.72-.16a35.37,35.37,0,0,1,3.71.25,3.68,3.68,0,0,1,.78.16h.08l.29.29c.45.45.82.89,1.22,1.34a32.2,32.2,0,0,1,3.84,6.46,29.43,29.43,0,0,1,2.19,6.52h2a25.66,25.66,0,0,0-.9-3.68c-.49-1.27-1-2.49-1.51-3.72"/><path class="cls-4" d="M67,67.12a20.77,20.77,0,0,0-6.33-.65,161,161,0,0,0-22.35,1.92c-2.65,1.06-6,5.55-7.8,9.48H77.84c-.78-3.06-7.36-9.36-10.87-10.75"/><path class="cls-10" d="M67.26,66.35a21.65,21.65,0,0,0-6.66-.7,161.87,161.87,0,0,0-22.63,2c-3,1.23-6.5,6-8.38,10.22h.9c1.84-3.89,5.15-8.38,7.8-9.48a161,161,0,0,1,22.35-1.92c3.1,0,5.27.2,6.33.65,3.47,1.35,10,7.73,10.83,10.73h.81c-.64-3.5-7.8-10.07-11.35-11.46"/><path class="cls-3" d="M83.44,66.71c-.5,1-3.07,3.64-5.23,3-1.15-.33-.94,5.72,1.67,8.13h4.74c1.35-2,3.35-8.43,3.59-9s-4.28-3.07-4.77-2"/><path class="cls-9" d="M88.46,68.23a2.69,2.69,0,0,0-2.25-2.58c-1.1-.24-2.57,0-2.94.66-.73,1.38-1.63,3.06-6.09,3.3a.56.56,0,0,0-.09,1.12h.14c4.65-.21,6-2,7-3.84a3,3,0,0,1,2.21,0,1.49,1.49,0,0,1,1,1.43c.12,2.53-2.54,7.23-4,9.6H84.7c1.59-2.78,3.88-7.07,3.76-9.68"/><g class="cls-11"><g class="cls-12"><path class="cls-13" d="M79.28,78c2.9-.7,5.48-3.6,5.68-7.72,0-.78-1.55-2.25-1.55-2.66s4.86.08,5.1,1.23-3,8-4.12,9.19-6.82.37-5.11,0"/></g></g><path class="cls-14" d="M81.56,63.9c-.37,2.53,4.57,6,7.92,5.92,2.78-.08,5.92-1.39,5.48-2.94s-3.15.28-3.4-.82,3.15-3.06,1.8-4.53-2.74,2.12-4.21,1.63.29-3.88-1.55-4.09c-2.16-.2-1.35,4.62-3,4.7-1.14.13-2.94-.69-3.06.13"/><path class="cls-15" d="M81.56,63.9c-.37,2.53,4.57,6,7.92,5.92,2.78-.08,5.92-1.39,5.48-2.94s-3.15.28-3.4-.82,3.15-3.06,1.8-4.53-2.74,2.12-4.21,1.63.29-3.88-1.55-4.09c-2.16-.2-1.35,4.62-3,4.7C83.48,63.9,81.68,63.08,81.56,63.9Z"/><g class="cls-16"><g class="cls-17"><path class="cls-14" d="M83,63.87c.53.41,2.45.94,2.74.25a4,4,0,0,0,.36-2.31c-.17.65-.37,1.88-1.07,2.16a4.83,4.83,0,0,1-2-.12"/></g></g><g class="cls-18"><g class="cls-17"><path class="cls-14" d="M88.24,61.18c-.08.44-.45,2.57.65,2.85.94.25,1.64-.32,2.37-1.51-.41.37-1.43,1.27-2.2.94s-.86-1.18-.82-2.28"/></g></g><g class="cls-19"><g class="cls-20"><path class="cls-14" d="M83.51,66.9c5.55-2.74,6.7,1.72,6.41,2.62-2.21.36-6.09-1.92-6.41-2.62"/></g></g><g class="cls-21"><g class="cls-17"><path class="cls-14" d="M91.59,65.16c-.94,1.06-.49,1.92.12,2,.77.17,1.8-.65,1.63-.65s-1.71.49-2-.25a1.21,1.21,0,0,1,.25-1.14"/></g></g><g class="cls-22"><g class="cls-12"><path class="cls-13" d="M28.14,72.26C46,82.51,81.41,72.09,79.53,68.74c-2.49-4.45-3.48-7.23-9-7s-40.35,3.07-41.78,4.14-2.94,5-.61,6.38"/></g></g><path class="cls-4" d="M67.05,10.67c8-.74,12.71-9,17.57-7.77C81.35,5,78.12,9,73.62,15.73c-1.1,1.59-8.74-4.86-6.54-5.06"/><path class="cls-23" d="M67.05,10.67c8-.74,12.71-9,17.57-7.77C81.35,5,78.12,9,73.62,15.73,72.49,17.32,64.85,10.87,67.05,10.67Z"/><path class="cls-3" d="M17,8.87c3.59-3.35,10.09-2,15.32-.17,3,1.07,6.86.21,7.11.82.65,1.43-3.23,4.37-6.42,4.29s-8.37-6-16-4.94"/><path class="cls-24" d="M17,8.87c3.59-3.35,10.09-2,15.32-.17,3,1.07,6.86.21,7.11.82.65,1.43-3.23,4.37-6.42,4.29S24.61,7.81,17,8.87Z"/><path class="cls-14" d="M72.53,14.63c1.84.53,8.82-13.16,12.21-11.82C95.53,7.1,81.47,23.61,77,24s-5.51-9.68-4.49-9.35"/><path class="cls-15" d="M72.53,14.63c1.84.53,8.82-13.16,12.21-11.82C95.53,7.1,81.47,23.61,77,24S71.51,14.3,72.53,14.63Z"/><path class="cls-14" d="M33.55,13c-3,1.31-13.56-9.76-18-2.65-2.94,4.7,6,14.17,12.34,15.2S35.12,12.3,33.56,13"/><path class="cls-15" d="M33.55,13c-3,1.31-13.56-9.76-18-2.65-2.94,4.7,6,14.17,12.34,15.2S35.11,12.3,33.55,13Z"/><g class="cls-25"><path class="cls-14" d="M80.85,5.48c-.57,1.88-5.39,6.74-4.74,10.9.24,1.56,1.88,6.13,2.57,6s2.45-1.27,2.29-1a22.68,22.68,0,0,1-3.31,2.37c-.86-.45-4.49-8.91-4-9.36,1.59-1.43,6.45-8.78,7.15-8.86"/></g><g class="cls-26"><path class="cls-14" d="M15.68,10.62c3.26-2,9.23-1.14,12.7,2.25C29.61,14.1,30,18.18,27.2,21c-1.11,1.1,6.53-3.92,6.57-5.39a2,2,0,0,0-1.63-2.29C28,11.73,23.52,8.13,19.68,8.21a4.6,4.6,0,0,0-4,2.41"/></g><g class="cls-27"><g class="cls-20"><path class="cls-14" d="M82.17,4.4c7.43,4.09-4.54,10.3-3.64,18-1.56-.14-5.39-7.59-4.45-8.27,1.31-.9,6.82-10,8.09-9.73"/></g></g><path class="cls-10" d="M24.81,29.5A6.53,6.53,0,0,0,25,27.86a11.71,11.71,0,0,1,.2-1.67,2.6,2.6,0,0,1,.25-.82,5.46,5.46,0,0,0,.28-.77c.21-.54.41-1.07.66-1.56a35.7,35.7,0,0,1,3.3-5.88,30.2,30.2,0,0,1,4.38-5A18.35,18.35,0,0,1,39.68,8.6,23.32,23.32,0,0,1,46.14,7a44.4,44.4,0,0,1,6.62-.29,60.81,60.81,0,0,1,6.61.45,31.14,31.14,0,0,1,6.54,1.55A21.2,21.2,0,0,1,69,10.09a15,15,0,0,1,2.78,2.09A12.73,12.73,0,0,1,74,14.87,16.71,16.71,0,0,1,75.44,18a28.23,28.23,0,0,1,.9,3.27c.24,1.1.41,2.16.65,3.18.12.49.29,1,.45,1.47s.41,1,.57,1.56c.37,1,.78,2.08,1.15,3.1a86.76,86.76,0,0,1,3.47,12.75,42.69,42.69,0,0,1,.69,6.57,22.19,22.19,0,0,1-.77,6.54c-.17.53-.33,1.06-.53,1.55a14.38,14.38,0,0,0-.66,1.51,3.63,3.63,0,0,1-.28.78c-.13.25-.29.49-.45.74a9.93,9.93,0,0,1-1,1.34,17.58,17.58,0,0,1-5.22,4.17A31.48,31.48,0,0,1,68.2,69a65.84,65.84,0,0,1-6.5,1.51c-2.21.41-4.37.7-6.54,1l-3.3.37-1.64.17-1.67.12a41.4,41.4,0,0,1-13.28-1.6A47.29,47.29,0,0,1,29,68.35a41.31,41.31,0,0,1-6-3.15,22.86,22.86,0,0,1-2.73-2.08c-.21-.21-.45-.41-.66-.61s-.36-.45-.57-.66c-.37-.45-.73-.9-1.06-1.35a14.57,14.57,0,0,1-2-13.23,31.52,31.52,0,0,1,2.74-6.17c1.1-1.92,2.28-3.8,3.43-5.64q.87-1.41,1.59-2.82a21.88,21.88,0,0,0,1.06-3.14Zm1.64.37a15,15,0,0,1-1.31,3.22c-.53,1-1.1,2-1.68,2.9-1.14,1.88-2.32,3.72-3.35,5.6a29.63,29.63,0,0,0-2.53,5.84,14.29,14.29,0,0,0-.49,6.13,13.35,13.35,0,0,0,2.41,5.6c.29.4.66.81,1,1.22.17.2.35.39.53.57s.37.37.53.54a22.11,22.11,0,0,0,2.5,1.92,41,41,0,0,0,5.67,3,44.08,44.08,0,0,0,6.09,2.16,46.84,46.84,0,0,0,6.29,1.31,36.81,36.81,0,0,0,6.38.29L50.08,70l1.63-.16c1.07-.08,2.17-.2,3.27-.33,2.17-.2,4.33-.49,6.46-.85s4.24-.78,6.33-1.35a44.5,44.5,0,0,0,6.08-2.09,18.41,18.41,0,0,0,5.3-3.45c.36-.37.73-.78,1.06-1.18.16-.21.32-.45.49-.66s.37-.41.53-.65A6.61,6.61,0,0,0,82,57.81a10.34,10.34,0,0,0,.49-1.55,21.87,21.87,0,0,0,.53-6.5,38.55,38.55,0,0,0-1-6.41A93.09,93.09,0,0,0,77.85,31l-1.23-3L76,26.43c-.21-.53-.41-1.1-.57-1.63-.29-1.1-.49-2.17-.74-3.23a21.58,21.58,0,0,0-.82-3.06,12.81,12.81,0,0,0-3.22-5.23,16.94,16.94,0,0,0-5.27-3.35,29.13,29.13,0,0,0-6.22-1.72,58.22,58.22,0,0,0-6.46-.69,44.5,44.5,0,0,0-6.53.12,22.39,22.39,0,0,0-6.29,1.55,17.61,17.61,0,0,0-5.4,3.48,18,18,0,0,0-3.8,5.14,36,36,0,0,0-2.28,6c-.16.51-.29,1-.4,1.56-.08.25-.12.53-.21.78s0,.28-.08.41a1.17,1.17,0,0,1-.16.36c-.21.49-.45,1-.7,1.47-.08.45-.24.94-.36,1.48Z"/><path class="cls-4" d="M25.63,29.7C23.91,37.3,9,49.31,20.32,61.61,24.2,65.81,36.78,72.19,49.41,71c32.84-3.1,41.13-11,27.28-45C74.45,20.49,77,7.74,52.84,7,42.71,6.71,30.53,8.1,25.63,29.71"/><path class="cls-28" d="M31.31,14.81a15.37,15.37,0,0,1,4-4.08,22,22,0,0,1,5.07-2.58,36.2,36.2,0,0,1,11.11-1.9A41.6,41.6,0,0,1,62.72,7.4a23.37,23.37,0,0,1,5.35,2.08A18.59,18.59,0,0,1,72.73,13,19.4,19.4,0,0,1,76,17.81,26.75,26.75,0,0,1,78,23.21a50.92,50.92,0,0,1,1,5.6q.16,1.36.45,2.7a6.09,6.09,0,0,0,.33,1.18l.12.25.08.16.37.62A31,31,0,0,1,84,44.49a24.33,24.33,0,0,1,.08,5.72,19.81,19.81,0,0,1-1.43,5.51,24.68,24.68,0,0,1-1.27,2.58l-.37.61c-.12.21-.24.37-.4.61a.15.15,0,0,1-.09.13c-.09,0,.17.28-.65,0-.2-.37-.08-.29-.12-.37s0-.16,0-.25l.12-.36.21-.66a25.86,25.86,0,0,0,1.26-5.35,12.55,12.55,0,0,0,0-2.74,6.46,6.46,0,0,0-.81-2.49,2.6,2.6,0,0,0-.41-.53c-.17-.16-.29-.33-.45-.49a10.69,10.69,0,0,0-1-.9,14.28,14.28,0,0,0-2.33-1.43A12.06,12.06,0,0,0,71,43.14a24.16,24.16,0,0,0-5.4.94c-.89.25-1.75.53-2.65.82-.45.16-.9.29-1.35.41a3.66,3.66,0,0,1-.73.16,4.06,4.06,0,0,1-.7.08,42.45,42.45,0,0,1-5.64.29A29.72,29.72,0,0,1,49,45.19a28.77,28.77,0,0,1-5.4-1.8,23.12,23.12,0,0,1-4.82-3,25.07,25.07,0,0,1-3.92-4.12A25.55,25.55,0,0,1,30.3,25.93a24.58,24.58,0,0,1-.45-5.68,17.21,17.21,0,0,1,.36-2.86A12.76,12.76,0,0,1,31.31,14.81Zm.81.53a8.39,8.39,0,0,0-.93,2.47,18.5,18.5,0,0,0-.37,2.66,21.7,21.7,0,0,0,.49,5.39,23.93,23.93,0,0,0,8.25,13.69,22.57,22.57,0,0,0,4.58,2.9,24.74,24.74,0,0,0,5.14,1.75,26.54,26.54,0,0,0,5.4.7,33.29,33.29,0,0,0,5.47-.21l.69-.08.66-.12,1.3-.37c.9-.24,1.8-.53,2.7-.73a23.06,23.06,0,0,1,5.6-.78,12.9,12.9,0,0,1,5.51,1.2A11.86,11.86,0,0,1,79,45.28a9.6,9.6,0,0,1,1.07.94l.49.49a2.71,2.71,0,0,1,.44.57A6.17,6.17,0,0,1,82,50a12.35,12.35,0,0,1,0,2.85,28.88,28.88,0,0,1-1.11,5.52l-.2.65-.08.33v.12s.08.08-.09-.28c-.77-.29-.49.08-.57,0,.08-.17.21-.37.33-.58s.2-.4.33-.61c.4-.82.77-1.63,1.1-2.49a21.12,21.12,0,0,0,.9-10.66,24.59,24.59,0,0,0-1.47-5.19,38.54,38.54,0,0,0-2.33-4.9l-.33-.58L78.37,34v-.16c-.06-.12-.12-.24-.17-.37q-.26-.72-.45-1.47c-.2-.94-.36-1.88-.49-2.78a49.77,49.77,0,0,0-1-5.39,24,24,0,0,0-1.75-5.07,17.93,17.93,0,0,0-2.94-4.37,19.86,19.86,0,0,0-9.11-5.31A38.47,38.47,0,0,0,51.57,7.68a33.74,33.74,0,0,0-10.74,1.6A19.55,19.55,0,0,0,36,11.65a12.5,12.5,0,0,0-3.85,3.71Z"/><path class="cls-9" d="M30.82,14.63a14.17,14.17,0,0,1,2.08-2.49,18.17,18.17,0,0,1,2.45-1.92,25.53,25.53,0,0,1,5.48-2.74,33.57,33.57,0,0,1,11.88-1.8,37.63,37.63,0,0,1,11.81,2A21.86,21.86,0,0,1,70,10.5a19.18,19.18,0,0,1,4.36,4.31,22.69,22.69,0,0,1,2.77,5.44,35.09,35.09,0,0,1,1.43,5.8c.17,1,.29,1.92.45,2.9s.29,1.92.45,2.77a5,5,0,0,0,.37,1.19v.16l.08.17.17.32.36.66c.45.85.9,1.75,1.31,2.65a32.32,32.32,0,0,1,1.88,5.68,25.64,25.64,0,0,1,.65,5.92,22.12,22.12,0,0,1-3.14,11.34.55.55,0,0,1-.74.21.57.57,0,0,1-.24-.66c.57-1.47,1.18-2.86,1.63-4.29a13.47,13.47,0,0,0,.82-4.26,6.27,6.27,0,0,0-1.23-3.92.74.74,0,0,0-.16-.2l-.08-.09L81,46.48l-.36-.37a6.8,6.8,0,0,0-.82-.69c-.57-.45-1.23-.86-1.84-1.27-2.57-1.59-5.31-3-8.09-4.37s-5.59-2.68-8.37-4c-5.64-2.57-11.28-5.15-16.83-7.93-2.78-1.43-5.52-2.85-8.21-4.57a43.64,43.64,0,0,1-4-3.06,8.39,8.39,0,0,1-1.71-2.13,3.91,3.91,0,0,1-.49-1.63,4.22,4.22,0,0,1,.08-1,2.81,2.81,0,0,1,.16-.49,1.77,1.77,0,0,1,.21-.41ZM33.11,16c-.09.12,0,.08-.09.12s0,0,0,.08v.16a2.28,2.28,0,0,0,.17.58,5.62,5.62,0,0,0,1.18,1.47,22.53,22.53,0,0,0,3.47,2.69c2.5,1.68,5.19,3.15,7.93,4.62,5.43,2.86,11,5.51,16.58,8.21,2.78,1.35,5.56,2.74,8.34,4.13a87.34,87.34,0,0,1,8.17,4.61,20.79,20.79,0,0,1,1.92,1.43c.33.25.61.53.94.82.16.16.28.29.45.49l.08.12.12.13c.08.08.12.16.21.24a7.81,7.81,0,0,1,1.1,2.29A8.71,8.71,0,0,1,84,50.7a15.44,15.44,0,0,1-1,4.74c-.53,1.51-1.18,2.9-1.79,4.33l-1-.49A20.73,20.73,0,0,0,83,48.49a27.27,27.27,0,0,0-2.65-10.9c-.41-.86-.82-1.72-1.31-2.54l-.73-1.3a7,7,0,0,1-.54-1.56c-.24-1-.4-2-.57-2.94s-.32-1.92-.49-2.82A32,32,0,0,0,75.19,21a19.6,19.6,0,0,0-2.57-4.82,16.12,16.12,0,0,0-3.88-3.76A19.42,19.42,0,0,0,63.84,10a36,36,0,0,0-11-1.63,31.38,31.38,0,0,0-5.64.43,29.1,29.1,0,0,0-5.35,1.34A23.84,23.84,0,0,0,37,12.5a13.43,13.43,0,0,0-2.13,1.64A11.3,11.3,0,0,0,33.13,16Z"/><path class="cls-3" d="M31.72,15.08c-4.5,6.94.85,33.62,29.08,30,3-.36,12.91-5.68,19.61,1.76,3.64,4.09-1.26,14.42,0,12.26,1.43-2.37,6.91-11.52-1.31-25.62C76.49,29,80.82,7.19,52.55,6.91c-10.82,0-17.85,3.55-20.83,8.17"/><g class="cls-29"><g class="cls-12"><path class="cls-13" d="M31,16.81c8.13-5.23,32.72-4.87,40.56,7.68C76.76,32.82,67.2,53.41,63.65,56s-8.42,4.87-21.33,1.79C31.38,55.17,47.84,45,35,43.52c-11.72-1.34-12.91-21-4-26.75"/></g></g><g class="cls-30"><g class="cls-20"><path class="cls-13" d="M53.69,37c0,.61-1.18,1.14-2.65,1.14s-2.66-.49-2.66-1.14,1.19-1.14,2.66-1.14,2.65.53,2.65,1.14"/></g></g><path class="cls-31" d="M49,33.66c.61-.4,3.88-.28,4.29.17s1.3,2.12.28,2.86c-.37.24-.37-.78-1.18-.61-1,.2-.45,1.47-1.23,1.47-1.18,0,0-1.39-1.06-1.56-.78-.16-.94.62-1.31.53-1.18-.24-.65-2.28.21-2.86"/><g class="cls-32"><path class="cls-31" d="M50.76,33.42a4.19,4.19,0,0,0-1.75.25c-.86.57-1.39,2.61-.25,2.82.29,0,.45-.58,1.06-.58H50c1,.17-.08,1.56,1.06,1.56.73,0,.2-1.23,1.23-1.43h.16c.57,0,.65.65.9.65a.13.13,0,0,0,.12,0c1.06-.74.16-2.45-.29-2.86a6,6,0,0,0-2.49-.37m0,.29a6.78,6.78,0,0,1,2.33.28,2.7,2.7,0,0,1,.65,1.8.8.8,0,0,1-.28.57l-.08-.08a1.11,1.11,0,0,0-.86-.53.38.38,0,0,0-.21,0c-.69.16-.81.7-.94,1.06s-.12.37-.24.37c-.33,0-.33-.08-.33-.45s0-.94-.73-1.06h-.25a1.49,1.49,0,0,0-.94.45s-.12.12-.16.12a.53.53,0,0,1-.41-.45A2.33,2.33,0,0,1,49,34a3.85,3.85,0,0,1,1.71-.24"/></g><g class="cls-33"><path class="cls-34" d="M76.24,44.39c1.23,7.84-8.57,17.69-21.77,19.73S31.55,54.36,30.33,46.47s6.86-4.86,20.06-6.86S75,36.54,76.24,44.39"/></g><g class="cls-35"><g class="cls-17"><path class="cls-36" d="M41.81,56.33A8.2,8.2,0,0,1,41,54.41l-.62-2A23.25,23.25,0,0,0,39,48.61a10.35,10.35,0,0,0-2.37-3.23,7.37,7.37,0,0,0-3.43-1.68.77.77,0,0,1-.5-1v0a.85.85,0,0,1,.94-.53,41.37,41.37,0,0,0,9,1.06,67.22,67.22,0,0,0,9.19-.49,81.93,81.93,0,0,0,9.07-1.59,90.06,90.06,0,0,0,8.87-2.49.79.79,0,0,1,1,.48h0a.75.75,0,0,1-.25.86c-.08.08-.24.2-.37.32s-.24.29-.36.41c-.25.29-.49.62-.74.94-.48.64-.93,1.31-1.35,2C66.81,45,66,46.4,65.22,47.81S63.67,50.69,63,52.12c-.36.74-.69,1.47-1,2.21-.16.36-.28.73-.45,1.14a3.7,3.7,0,0,0-.16.57v.17a.09.09,0,0,1-.08.08.48.48,0,0,1-.16.12,1,1,0,0,1-.29.16,12.81,12.81,0,0,1-2.37.66,24.13,24.13,0,0,1-2.41.36,46.38,46.38,0,0,1-4.86.41,32.86,32.86,0,0,1-4.86-.08,15.17,15.17,0,0,1-2.41-.41,4.9,4.9,0,0,1-1.15-.45,2.4,2.4,0,0,1-.94-.73m0,0a2.17,2.17,0,0,0,.94.73,8.31,8.31,0,0,0,1.15.41,11.62,11.62,0,0,0,2.41.37,39.4,39.4,0,0,0,4.86,0c1.63-.08,3.23-.29,4.82-.49.78-.12,1.59-.25,2.37-.45a14,14,0,0,0,2.29-.69,1,1,0,0,0,.24-.17Q61,56,61,55.92a6.09,6.09,0,0,1,.17-.61c.12-.41.24-.78.37-1.19.28-.77.57-1.51.89-2.29.66-1.51,1.31-3,2-4.45s1.43-2.94,2.2-4.37c.37-.73.78-1.43,1.23-2.16a10.68,10.68,0,0,1,.72-1c.12-.16.25-.36.37-.53s.32-.36.49-.53l.78,1.39a87,87,0,0,1-9,2.53A88.23,88.23,0,0,1,52,44.28a67.14,67.14,0,0,1-9.4.49,45.9,45.9,0,0,1-9.4-1.19L33.62,42a13.78,13.78,0,0,1,3.52,2.69,13.26,13.26,0,0,1,2.12,3.68,35.48,35.48,0,0,1,1.23,4c.16.66.36,1.35.53,2a8.92,8.92,0,0,0,.81,2"/></g></g><g class="cls-37"><g class="cls-17"><path class="cls-36" d="M41.82,56.33A7.94,7.94,0,0,1,41,54.45c-.2-.65-.36-1.3-.57-2A28.19,28.19,0,0,0,39,48.57a10.79,10.79,0,0,0-2.29-3.27,7.21,7.21,0,0,0-3.43-1.88.42.42,0,0,1-.24-.53.44.44,0,0,1,.49-.28,42.74,42.74,0,0,0,9.15,1.06A69.75,69.75,0,0,0,52,43.18c3.07-.37,6.09-.94,9.11-1.59A82.22,82.22,0,0,0,70,39.09a.42.42,0,0,1,.53.25.45.45,0,0,1-.12.45,7.46,7.46,0,0,0-.78.81c-.25.29-.49.66-.74.94-.45.66-.89,1.35-1.3,2.05-.86,1.35-1.68,2.78-2.45,4.2S63.59,50.65,63,52.13l-1,2.2a11,11,0,0,0-.41,1.14,3.83,3.83,0,0,0-.16.58c0,.16-.17.2-.25.28a1,1,0,0,1-.28.17,13,13,0,0,1-2.37.65c-.78.16-1.6.29-2.41.41-1.6.2-3.23.37-4.86.45a33,33,0,0,1-4.87-.08A17.82,17.82,0,0,1,44,57.52a9.1,9.1,0,0,1-1.14-.41,2.32,2.32,0,0,1-1-.78m0,0a2.63,2.63,0,0,0,.94.78c.37.16.74.28,1.14.41a12.31,12.31,0,0,0,2.41.36,30.46,30.46,0,0,0,4.87,0c1.63-.09,3.22-.25,4.86-.49.77-.13,1.59-.25,2.41-.45a10.56,10.56,0,0,0,2.28-.7.72.72,0,0,0,.25-.16c.08,0,.16-.12.16-.17a3.25,3.25,0,0,1,.17-.61,11,11,0,0,1,.4-1.14c.29-.78.62-1.51.94-2.25C63.32,50.4,64,49,64.75,47.5s1.47-2.9,2.29-4.33a20.92,20.92,0,0,1,1.26-2.08,10,10,0,0,1,.7-1,7.37,7.37,0,0,1,.85-1l.41.74a84.57,84.57,0,0,1-9,2.53c-3,.7-6.09,1.23-9.2,1.64a66.35,66.35,0,0,1-9.35.49,48.82,48.82,0,0,1-9.32-1.11l.21-.77A9,9,0,0,1,37.11,45a12.6,12.6,0,0,1,2.17,3.55,30.51,30.51,0,0,1,1.3,3.92c.17.66.37,1.31.58,2a4.64,4.64,0,0,0,.65,1.8"/></g></g><path class="cls-38" d="M41.85,56.3c2.08,3.26,19.12,1,19.4-.29.74-3.31,6.87-15,8.83-16.63-3.52,1.23-21.78,7.07-36.61,3.52,6.66,2.24,6.74,10.86,8.38,13.4"/><g class="cls-39"><path class="cls-38" d="M70,39.45c-2.74.93-14.26,4.65-26.19,4.65A46.24,46.24,0,0,1,33.41,43c6.7,2.16,6.78,10.83,8.42,13.36C42.6,57.58,45.59,58,49,58c5.47,0,12.05-1.14,12.25-2C62,52.68,68.05,41,70,39.41M67.73,41c-2.66,4-6.5,11.72-7.27,14.62-1,.58-6.3,1.56-11.48,1.56-4.17,0-6-.7-6.46-1.31a11.69,11.69,0,0,1-1.06-3.06c-.69-2.49-1.68-5.92-4-8.29a52.87,52.87,0,0,0,6.41.37A89,89,0,0,0,67.73,41"/></g><path class="cls-14" d="M48.83,58c-3.51,0-5.8-.49-6.7-1.47-.08-.08-.08-.57.33-1.51a11,11,0,0,1,9.23-6.41h1c6.13,0,9.81,3.1,9.81,3.63-.08.17-.16.41-.29.74-.32.77-.81,2-1.26,3.31-.53.53-6.66,1.75-12.14,1.75"/><path class="cls-31" d="M52.71,48.37a9.37,9.37,0,0,0-1.06,0c-7.15.49-10.46,7.56-9.68,8.44,1.06,1.14,3.8,1.55,6.9,1.55,5.52,0,12.18-1.27,12.38-1.88.61-1.84,1.31-3.35,1.59-4.08s-3.88-4-10.09-4m0,.53c5.48,0,9.16,2.62,9.52,3.39a6.62,6.62,0,0,0-.24.62c-.33.77-.82,1.92-1.27,3.22-.86.49-6.58,1.6-11.89,1.6-3.31,0-5.59-.49-6.45-1.35a5.76,5.76,0,0,1,1.27-2.86,10.59,10.59,0,0,1,8-4.62h1"/><g class="cls-40"><path class="cls-14" d="M42.05,56.34c-.49,2.21,13-8.62,20.3-3.43,1.51-2-6.54-5.39-11.24-4.61-4,.69-8,3.22-9.06,8"/></g><path class="cls-41" d="M44.79,44.69c.69,1.23,2,7.19,2.49,7.32s3.88,1.06,4.33.86.45-1.35.94-1,.61.82,1,.62a13.84,13.84,0,0,0,3.27-2.29c.33-.61.29-4,0-6.7-1.39.65-9.6,1.51-12,1.22"/><g class="cls-42"><path class="cls-43" d="M56.86,43.49C55.64,44,49.22,44.81,46,44.81a11.61,11.61,0,0,1-1.18,0c.69,1.22,2,7.19,2.49,7.31a29.55,29.55,0,0,0,4.13.9.34.34,0,0,0,.2,0c.41-.17.45-1.07.78-1.07a.15.15,0,0,1,.16.09c.37.2.53.65.86.65a.22.22,0,0,0,.16,0,13.84,13.84,0,0,0,3.27-2.29c.37-.61.29-4,0-6.74m-.2.37c.24,2.78.24,5.72,0,6.21a12.56,12.56,0,0,1-3.15,2.2c-.08,0-.2-.12-.29-.24a2.83,2.83,0,0,0-.4-.37.63.63,0,0,0-.33-.12c-.37,0-.49.37-.61.65s-.17.41-.29.45h-.12A26.81,26.81,0,0,1,47.81,52a2.21,2.21,0,0,0-.37-.08,24.72,24.72,0,0,1-1.18-3.59c-.37-1.27-.7-2.45-1-3.15H46A57.37,57.37,0,0,0,56.66,44"/></g><g class="cls-44"><path class="cls-45" d="M45.75,47.57c-.2-2.2,10-2.94,11.23-2.73,0-.53-.08-.86-.08-1.47-1.67.86-10.82,1.75-12,1.39a19.56,19.56,0,0,1,.9,2.81"/></g><g class="cls-46"><path class="cls-43" d="M50.82,45.91c.2.49.41.94.57,1.43l.49,1.47.45,1.47.45,1.47-.7.2-.32-1.51-.37-1.51L51,47.46c-.16-.49-.28-1-.45-1.43Z"/></g><g class="cls-47"><path class="cls-48" d="M16.43,11.33C21.82,12.71,21,22,24.15,22.81S31.59,15.13,32,13.3c-6.21-2.66-9.11-5.76-13.57-4.87-1.47.29-3.51,2.54-2,3"/></g><g class="cls-49"><g class="cls-17"><path class="cls-13" d="M31.38,38.58c6.78.53,12.37.82,14.38-1.27s2.73-11.31,6-11.07c2.78.21,3.72,12.22,5.52,12.54s14.5,3.84,17.69.58,4.61-5.31,3.88-7.27-19.33-8.28-23.13-8.67-29.45,2.86-30.1,4.46-1.35,1.39-1.23,3.1c.25,3.31.2,7.07,7,7.6"/></g></g><path class="cls-38" d="M50.39,24.92c.49,0,2.41-.16,2.86.21,2.45,1.92,2.36,9.8,4.94,12.25,2.29,2.21,14.79,3.8,17,1.31S80.54,28.6,81.28,28s2.37-.94,2.86-1.72.08-4.08-1.06-3.92-3.31.86-4.66.49-7.93-4.53-24.47-2a10.91,10.91,0,0,1-4.29-.29c-1.1-.28-7.31-3.88-23.94-1.51-1.63.24-3.92-.49-4.74-.41s-1.06,2.66-.73,3.31,2,1.23,2.24,2,1.67,8.83,5.59,12.14c4.17,3.51,14.79,1.06,15.73.4,4.21-3,5.15-11.6,6.58-11.6"/><g class="cls-50"><path class="cls-51" d="M36.06,18.27a70.46,70.46,0,0,0-10.46.82,4.45,4.45,0,0,1-.73,0c-1.43,0-3.11-.45-3.88-.45h-.12c-.82.08-1.07,2.66-.74,3.31s2,1.23,2.25,2S24.09,32.86,28,36.17C29.61,37.56,32.3,38,35,38c4.09,0,8.13-1,8.7-1.43,4.25-3,5.23-11.64,6.66-11.64h1.23a3.9,3.9,0,0,1,1.59.21c2.45,1.92,2.37,9.8,4.94,12.25C59.56,38.78,65.2,40,69.61,40c2.5,0,4.62-.36,5.4-1.26,2.16-2.49,5.35-10.09,6.08-10.66s2.37-.94,2.86-1.72S84,22.4,83,22.4h0a25.91,25.91,0,0,1-3.72.57,3.79,3.79,0,0,1-.94-.12C77.25,22.52,73.12,20,63.73,20a65.5,65.5,0,0,0-9.89.78,7.59,7.59,0,0,1-1.35.08,11.82,11.82,0,0,1-2.9-.37,36.42,36.42,0,0,0-13.48-2.21m0,.82c7.4,0,11.2,1.47,12.58,2a3.09,3.09,0,0,0,.7.25,14.18,14.18,0,0,0,3.1.41A8,8,0,0,0,54,21.66a65.32,65.32,0,0,1,9.77-.77c7.76,0,11.8,1.71,13.56,2.49.37.16.61.24.82.33a3.62,3.62,0,0,0,1.18.16A13.61,13.61,0,0,0,82,23.5c.37-.08.73-.16,1-.2A4.39,4.39,0,0,1,83.4,26a3.88,3.88,0,0,1-1.35.78,6.92,6.92,0,0,0-1.27.65c-.45.33-.89,1.19-2.2,3.8a44.06,44.06,0,0,1-4,7c-.4.49-1.87,1-4.82,1-4.29,0-9.76-1.15-11-2.33s-1.72-3.55-2.29-6c-.66-2.7-1.27-5.23-2.7-6.38a3.42,3.42,0,0,0-2.08-.41H50.4c-1.14,0-1.63,1.35-2.49,3.8-.94,2.7-2.29,6.34-4.62,8A25.13,25.13,0,0,1,35,37.21c-3,0-5.23-.57-6.49-1.64-1.56-1.3-3.72-4.37-5.27-11.35a2.22,2.22,0,0,1-.09-.37c-.2-.78-.94-1.23-1.55-1.64a4,4,0,0,1-.73-.57,4,4,0,0,1,.24-2.16,8.84,8.84,0,0,1,1.15.16,17.14,17.14,0,0,0,2.67.27,2.76,2.76,0,0,0,.86-.08,85.71,85.71,0,0,1,10.25-.74"/></g><g class="cls-52"><g class="cls-17"><path class="cls-53" d="M27,24.13c-.37.49-.62,7.72,2.45,9.68,2,1.31,10.5,1,12.21.08,2.66-1.51,5.27-8.38,4.54-9.36-1.2-1.63-10-3.79-16.66-2.08A5.39,5.39,0,0,0,27,24.13Z"/></g></g><path class="cls-2" d="M27,24.11c-.37.49-.62,7.72,2.45,9.68,2,1.3,10.5,1,12.21.08,2.66-1.51,5.27-8.38,4.54-9.36-1.2-1.63-10-3.8-16.66-2.08A5.73,5.73,0,0,0,27,24.11"/><g class="cls-54"><g class="cls-17"><path class="cls-53" d="M76.9,27.28c.32.53-.41,7.72-3.68,9.31-2.17,1-10.54-.37-12.09-1.51-2.45-1.84-4.17-9-3.31-9.89,1.43-1.47,10.46-2.45,16.79.09A5.75,5.75,0,0,1,76.9,27.28Z"/></g></g><path class="cls-2" d="M76.9,27.29c.33.53-.41,7.72-3.68,9.32-2.16,1-10.54-.37-12.09-1.52-2.45-1.83-4.17-9-3.31-9.88,1.43-1.47,10.46-2.45,16.79.08a5.75,5.75,0,0,1,2.29,2"/><path d="M36.66,28.52c-.2,1.59-1,2.78-1.8,2.65s-1.18-1.47-1-3.06,1-2.78,1.8-2.66,1.18,1.47,1,3.07m32.56,1.79c.16,1.6-.33,3-1.06,3s-1.52-1.15-1.68-2.74.33-2.94,1.06-3,1.43,1.24,1.68,2.74"/><g class="cls-55"><g class="cls-6"><path class="cls-38" d="M21,21c.94.61,1.8.25,2,1.47s3,11.85,6.54,13.07c5.76,2,13,0,14-.57s5.6-11,6.38-11.36,3.22,0,3.75.29c1.6.7,4.54,11.89,5.31,12.46,3.56,2.49,15,2.29,15.49,1.63S79.26,27.52,80,27c1.11-.85,3.68-1.43,3.76-1.06s-2.08.74-2.73,1.51-5,10.18-6.3,11S63.45,40.59,58.38,37C56,35.28,55,25.11,53.11,24.53a5.4,5.4,0,0,0-3.06-.08c-1.19.78-2.86,9.44-6.42,11.6-1.42.86-12.5,3-15.8-.44-6.17-6.46-4.29-12.22-6.3-13-1.34-.57-1.63-1.3-1.63-1.79s.57-.13,1.06.2"/></g></g><g class="cls-56"><g class="cls-6"><path class="cls-38" d="M21.07,18.81a15.14,15.14,0,0,0,4,1.1,20.53,20.53,0,0,0,4.08-1.19c.62-.2-3.18.49-4.12.45s-3.64-.24-4-.36"/></g></g><g class="cls-57"><g class="cls-6"><path class="cls-38" d="M47.57,20.74c1.18.53,1.71,1.87,2.86,2a7.47,7.47,0,0,0,3.18,0,18.61,18.61,0,0,1,2.74-1.31,39.08,39.08,0,0,1-5.07.41,28,28,0,0,1-3.71-1.06"/></g></g><g class="cls-58"><g class="cls-6"><path class="cls-38" d="M76.56,22.3c-.49-.21,1.8,1.63,2.49,1.55a12.88,12.88,0,0,0,2.45-1,16.93,16.93,0,0,1-2.24.28,14.1,14.1,0,0,1-2.7-.77"/></g></g><g class="cls-59"><g class="cls-6"><path class="cls-38" d="M25.69,23.05c3-3,10.21-2,11.52-1.71-8.62.61-8.78,1.26-10.29,2.78a18,18,0,0,0,.85,8.53c-1.51-.81-3.1-8.58-2.08-9.6"/></g></g><g class="cls-60"><g class="cls-6"><path class="cls-38" d="M78.56,26.27c-2.62-3.35-9.85-3.31-11.2-3.19,8.46,1.76,8.54,2.41,9.85,4.13a17.72,17.72,0,0,1-1.92,8.33c1.55-.65,4.13-8.17,3.27-9.27"/></g></g><g class="cls-61"><path class="cls-62" d="M27.06,29.08c.29-3.51.62-6.37,7.6-6.58,5.6-.16,10.05,1.15,10.67,2.49.4.86.08,4.62-2.7,8,1.8-1.59,4.66-7.92,3.43-8.7-4.53-2.9-13.56-3-16.91-1.8a6.54,6.54,0,0,0-2.25,1.64,19.61,19.61,0,0,0,.16,4.9"/></g><g class="cls-63"><path class="cls-62" d="M27.26,29.33c1.06,6.87,13.6,4.78,14.34,4.5,0,.37-6.58,2.2-12.06.08-2.2-.82-2.36-5.35-2.28-4.58"/></g><g class="cls-64"><path class="cls-62" d="M76.31,32.15c.16-3.56.16-6.37-6.7-7.44-5.52-.86-10.09-.12-10.91,1.15-.49.77-.65,4.57,1.72,8.33-1.6-1.84-3.68-8.41-2.33-9.07,4.88-2.31,13.88-1.31,17,.29a5.75,5.75,0,0,1,2,1.92c0,.86-.45,4.37-.82,4.82"/></g><g class="cls-65"><path class="cls-62" d="M76.07,32.36C74.2,39,62,35.43,61.29,35.06c0,.37,6.25,3,12,1.59,2.28-.57,3.06-5.06,2.81-4.29"/></g><g class="cls-66"><g class="cls-20"><path class="cls-2" d="M36.45,26.47a.4.4,0,0,0-.41-.4.42.42,0,0,0-.47.34.41.41,0,0,0,.34.47.28.28,0,0,0,.13,0,.38.38,0,0,0,.41-.37v0"/></g></g><g class="cls-67"><g class="cls-20"><path class="cls-2" d="M68.72,28.39a.41.41,0,0,0-.41-.41.41.41,0,0,0-.41.41.39.39,0,0,0,.35.41h.06a.43.43,0,0,0,.41-.41"/></g></g><g class="cls-68"><g class="cls-69"><path class="cls-62" d="M21.19,20.54a2.68,2.68,0,0,0,2.9,1.06C36.79,20,43.82,20,47.29,23.24c.74.69.33-2.09-1.06-2.45a40.71,40.71,0,0,0-20.1-.09c-1.68.25-2.86-.12-4.94-.16"/></g></g><g class="cls-70"><g class="cls-69"><path class="cls-62" d="M56.32,22.18c-.29.28-.16,3.22,1.23,2.12,4-3.19,12.42-2.49,18.22-.49C74.83,22,68,20.7,64.16,20.75c-1.84.08-7.06.61-7.84,1.43"/></g></g><path class="cls-62" d="M80.49,24.51c0,.13-.65.21-1.43.21s-1.43-.08-1.43-.21.66-.2,1.43-.2a3,3,0,0,1,1.43.2M25.43,21c0,.12-.66.12-1.43,0s-1.39-.33-1.35-.45.65-.12,1.43,0,1.39.29,1.35.45"/><path class="cls-2" d="M104.53,86.46a3.72,3.72,0,0,0-3.76-3.59,4,4,0,0,0-1.63.32l-.33.17-.28.2a7,7,0,0,1-1.72.94,8.7,8.7,0,0,1,.08-1.69v-.08c.45-4.37-.45-6.94-2.74-7.6A3.94,3.94,0,0,0,93,74.94a5.83,5.83,0,0,0-3.39,1.23,3.87,3.87,0,0,0-3.19-1.31A4.46,4.46,0,0,0,82,77.39a4.91,4.91,0,0,0-.24.74,6.36,6.36,0,0,0-6-3.72,9.61,9.61,0,0,0-5.11,1.47.14.14,0,0,0-.12.08,15.35,15.35,0,0,0-4.86,5.6,9,9,0,0,0-4-5.11c-.09,0-.13-.08-.17-.08,2.17-3.8,4-8.87,2.9-13.69-1.27-5.18-4.29-5.87-6-5.87a7,7,0,0,0-2.17.37H56.2a10.82,10.82,0,0,0-4.9,3.59,32.36,32.36,0,0,0-4.66,13.57c-.08.85-.2,1.75-.28,2.65a4.61,4.61,0,0,0-2.58-1.71,3.83,3.83,0,0,0-1.22-.17,6,6,0,0,0-4,1.8,3.61,3.61,0,0,0-2.9-1.63h-.29A6.76,6.76,0,0,0,31,77a4,4,0,0,0-3.52-2h-.61a4.44,4.44,0,0,0-4.37,2.62,4,4,0,0,0-.16.49,7.76,7.76,0,0,0-6.54-3h-.3c-1.75,0-6.08.78-8.78,6.78a20.92,20.92,0,0,0-1,2.78,3.42,3.42,0,0,0-1.51-.32,3.5,3.5,0,0,0-2.94,1.55c-.41.61-1.72,2.74-1.06,4.86a3.78,3.78,0,0,0,2.28,2.45c1,.41,2.29.78,3.23,1.06A10.56,10.56,0,0,0,9.2,98.54a8,8,0,0,0,5,1.51,18.45,18.45,0,0,0,6.9-1.59l.12-.08a4.82,4.82,0,0,0,2.54,1.35,5,5,0,0,0,1.22.12c1.8,0,3.07-.94,4.25-2.66A5.4,5.4,0,0,0,34,99.52c.12,0,.2.08.37.08A4,4,0,0,0,38,97.37a5.26,5.26,0,0,0,4.7,2.65,8.54,8.54,0,0,0,3.68-.9h.08c.61-.32,1.1-.61,1.51-.81a12.51,12.51,0,0,0,5.89,1.5,7.15,7.15,0,0,0,1.31-.08h.25a47.84,47.84,0,0,0,10.86-3.31,10.27,10.27,0,0,0,7,3.43,10.09,10.09,0,0,0,1.1,0,14.09,14.09,0,0,0,6.46-1.59,5.31,5.31,0,0,0,2,1.34,3.73,3.73,0,0,0,1.51.29c3.31,0,4.86-3.92,5.27-5.27l.78-2.12a6,6,0,0,0,2.73,1.67,8,8,0,0,0,2,.29c3.64,0,7.15-2.58,7.68-3a6.2,6.2,0,0,0,1.8-5"/><path class="cls-71" d="M71.16,87.55s-.45-1.63,1.27-4.74,3-1.42,3-1.42,1.47,1.59-.21,4a4.88,4.88,0,0,1-4.08,2.2M58.05,89.81a4.87,4.87,0,0,1-6.7,3s-.54-1.83,1-6.94,5.16-3.06,5.16-3.06,2.5,1.92.54,7M54.49,68.35s2.94-7.72,3.68-4-6.2,15-6.2,15c.08-2.49,2.53-11,2.53-11M12.21,87.55c.12-4.94,3.35-7.1,4.49-6s.74,3.43-1.43,4.86-3.06,1.18-3.06,1.18m89.59-.81a1.15,1.15,0,0,0-1.12-1.19,1.07,1.07,0,0,0-.56.12s-2.41,1.88-4.53,1.68-1.43-4.94-1.43-4.94.45-4.37-.78-4.74-2.78,1.1-2.78,1.1a15.56,15.56,0,0,0-2.81,4.82l-.25.08a38.48,38.48,0,0,0,0-5.84c-.25-.53-2.53-.49-2.9.45a58,58,0,0,0-2.37,10.42s-3.59,3-6.7,3.55-3.88-1.48-3.88-1.48,8.5-2.37,8.21-9.15S73,77.37,72.3,77.94s-4.53,2.87-5.68,9.25c0,.2-.12,1.18-.12,1.18a29.61,29.61,0,0,1-5.1,2.78s5.1-8.62-1.15-12.54c-2.82-1.72-5.1,1.88-5.1,1.88s8.45-9.4,6.57-17.37c-.9-3.8-2.78-4.2-4.53-3.59a8,8,0,0,0-3.64,2.57,29,29,0,0,0-4.21,12.34c-.77,7.39-2,16.26-2,16.26a6.09,6.09,0,0,1-3.1,1.67c-1.51.09-.82-4.45-.82-4.45s1.15-6.9,1.06-8.09-.16-1.79-1.55-2.2S40.07,79,40.07,79s-4,6-4.29,6.91l-.2.37L35.37,86s2.78-8.17.13-8.29-4.42,2.9-4.42,2.9-3,5.11-3.14,5.68L27.73,86s1.27-5.92,1-7.39a1.33,1.33,0,0,0-1.46-1.18l-.18,0s-1.76-.2-2.2.94a84.37,84.37,0,0,0-2.33,11s-4.37,3.15-7.23,3.15-2.58-1.84-2.58-1.84S23.29,87.15,20.43,80a5.19,5.19,0,0,0-4.9-2.37c-2.12,0-4.62,1.34-6.33,5.14a12.41,12.41,0,0,0-1.15,4.86s-2,.37-3-.44-1.59,0-1.59,0-1.76,2.49,0,3.14,4.33,1.31,4.33,1.31a7.64,7.64,0,0,0,3,4.41C14,98.38,20,95.64,20,95.64l2.45-1.47s.08,2.21,1.88,2.53,2.53,0,5.68-7.59c1.84-3.88,2-3.68,2-3.68h.21s-1.47,7.38-.9,9.38,2.9,1.8,2.9,1.8,1.31.45,2.33-3.23a50.68,50.68,0,0,1,3-7.51h.24s-.85,7.39.45,9.8,4.78.74,4.78.74a26.67,26.67,0,0,0,2.78-1.64,9.82,9.82,0,0,0,6.91,2c9-1.79,12.25-4.2,12.25-4.2a7.48,7.48,0,0,0,6.39,4.24,10.55,10.55,0,0,0,8.5-3.07,3.33,3.33,0,0,0,1.88,3c1.92.77,3.23-3.4,3.23-3.4l3.23-8.62h.28s.16,5.52,3.35,6.42,7.31-2.29,7.31-2.29.9-.45.7-2.12"/></g></g></svg>