<svg xmlns="http://www.w3.org/2000/svg" viewBox="0 0 111.74 100.46"><defs><style>.cls-1{fill:#fff;}.cls-2{fill:#6356db;}.cls-3{fill:#8056db;}</style></defs><g id="Слой_2" data-name="Слой 2"><g id="Layer_1" data-name="Layer 1"><path class="cls-1" d="M0,50c0,8.43,8.24,16.31,21.24,20.75-2.6,13.06-.47,23.59,6.64,27.69,7.31,4.22,18.2,1.3,28.54-7.74,10.08,8.67,20.26,12.08,27.36,8,7.31-4.23,9.53-15.47,6.86-28.93,13.53-4.48,21.1-11.19,21.1-19.74,0-8.25-8.25-15.38-21.07-19.79,2.87-14,.44-24.29-7-28.57C76.56-2.43,66.24,1.16,56,10.05,45.4.61,35.24-2.27,27.8,2c-7.13,4.13-9.17,14.84-6.56,28.15C8.68,34.53,0,41.85,0,50Z"/><path class="cls-2" d="M88,34.63c-1-.35-2.1-.69-3.2-1,.18-.73.35-1.46.5-2.17,2.41-11.74.83-21.2-4.57-24.31-5.17-3-13.64.13-22.19,7.57-.82.71-1.65,1.47-2.47,2.26-.55-.52-1.1-1-1.64-1.51-9-8-18-11.31-23.34-8.19-5.17,3-6.7,11.88-4.53,23,.21,1.07.46,2.17.74,3.28-1.27.36-2.5.75-3.68,1.16-10.5,3.66-17.21,9.4-17.21,15.36,0,6.15,7.2,12.31,18.14,16,.87.3,1.76.58,2.69.84-.3,1.21-.56,2.39-.78,3.55C24.34,81.45,26,90.13,31.12,93.1c5.33,3.07,14.27-.08,23-7.69.69-.61,1.38-1.24,2.07-1.91.89.86,1.79,1.68,2.68,2.44,8.37,7.26,16.74,10.19,21.9,7.21,5.32-3.08,7-12.41,4.8-23.75-.17-.87-.37-1.75-.59-2.65.63-.19,1.24-.38,1.84-.58C98.2,62.4,105.6,56.31,105.6,50.08,105.6,44.08,98.68,38.32,88,34.63Z"/><path class="cls-1" d="M85.49,62.15c-.54.18-1.1.35-1.67.52a99.36,99.36,0,0,0-5-12.57,99,99,0,0,0,4.83-12.39q1.5.43,3,.93c9.18,3.16,14.78,7.83,14.78,11.44,0,3.83-6.05,8.81-15.87,12.07Zm-4.08,8.07a35.64,35.64,0,0,1,.48,13.1c-.59,3.19-1.78,5.31-3.25,6.16-3.12,1.81-9.81-.54-17-6.75-.82-.71-1.65-1.47-2.49-2.27a98.83,98.83,0,0,0,8.29-10.61,96.83,96.83,0,0,0,13.44-2c.2.82.38,1.62.53,2.4Zm-41.17,19c-3.06,1.08-5.49,1.11-7,.26-3.13-1.81-4.43-8.78-2.66-18.12.21-1.07.45-2.17.73-3.3A98.79,98.79,0,0,0,44.68,70a102.88,102.88,0,0,0,8.56,10.52l-1.89,1.74a35.84,35.84,0,0,1-11.11,7Zm-14.32-27A35.74,35.74,0,0,1,14.35,56c-2.46-2.1-3.7-4.2-3.7-5.89C10.65,46.51,16,41.9,25,38.77c1.09-.38,2.23-.74,3.41-1.07a103,103,0,0,0,4.81,12.48,104.65,104.65,0,0,0-4.91,12.67c-.84-.24-1.66-.5-2.45-.77Zm4.8-32.66C28.86,20,30.1,12.79,33.21,11c3.32-1.92,10.66.82,18.4,7.69.5.43,1,.89,1.49,1.37a102.21,102.21,0,0,0-8.45,10.46A104,104,0,0,0,31.4,32.57C31.15,31.57,30.92,30.51,30.72,29.51ZM73.49,40c-1-1.69-2-3.35-3-5a89.72,89.72,0,0,1,9,1.58c-.92,2.9-2,5.76-3.18,8.55-.9-1.71-1.85-3.44-2.85-5.17ZM56,23a86.6,86.6,0,0,1,5.84,7Q59,29.91,56,29.89c-2,0-3.91,0-5.84.14A83.43,83.43,0,0,1,56,23ZM38.46,40c-1,1.7-1.91,3.42-2.8,5.13-1.23-2.93-2.29-5.8-3.15-8.58,2.83-.64,5.85-1.16,9-1.55C40.46,36.66,39.45,38.33,38.46,40ZM41.6,65.36a88.45,88.45,0,0,1-9.15-1.47c.88-2.83,2-5.77,3.22-8.76.89,1.72,1.82,3.43,2.81,5.14S40.53,63.7,41.6,65.36Zm14.55,12c-2-2.17-4-4.56-6-7.14,1.9.07,3.84.11,5.8.11s4,0,6-.13a89.11,89.11,0,0,1-5.82,7.16ZM76.38,55a86.11,86.11,0,0,1,3.33,8.73,87.58,87.58,0,0,1-9.25,1.58c1-1.64,2-3.32,3-5s2-3.51,2.88-5.26Zm-6.55,3.14c-1.59,2.7-3.14,5.26-4.76,7.7-2.94.21-6,.32-9.09.32s-6.09-.1-9-.28c-1.68-2.46-3.31-5-4.85-7.7s-3-5.33-4.23-8c1.28-2.67,2.69-5.35,4.22-8s3.14-5.22,4.81-7.66c3-.22,6-.34,9-.34s6.11.12,9.06.34c1.64,2.42,3.24,5,4.78,7.64s3,5.35,4.28,8c-1.29,2.65-2.72,5.34-4.27,8Zm8.75-47.3c3.32,1.92,4.61,9.65,2.52,19.78-.14.67-.28,1.34-.44,2a102.6,102.6,0,0,0-13.27-2.09A99.14,99.14,0,0,0,59,20.07c.76-.74,1.53-1.43,2.28-2.1,7.33-6.37,14.18-8.89,17.3-7.09Z"/><path class="cls-3" d="M56,41.21a8.87,8.87,0,1,1-8.86,8.88h0A8.88,8.88,0,0,1,56,41.21"/></g></g></svg>